<?xml version="1.0" encoding="utf-8"?>
<!-- Generator: Adobe Illustrator 23.0.3, SVG Export Plug-In . SVG Version: 6.00 Build 0)  -->
<svg version="1.1" id="Layer_1" xmlns="http://www.w3.org/2000/svg" xmlns:xlink="http://www.w3.org/1999/xlink" x="0px" y="0px"
	 viewBox="0 0 2757.8 400" style="enable-background:new 0 0 2757.8 400;" xml:space="preserve">
<style type="text/css">
	.st0{fill:#D12027;}
	.st1{fill:#FFFFFF;}
</style>
<g id="on_white_logo">
	<g id="text_6_">
		<g>
			<g>
				<path class="st0" d="M501.07,274.04V111.48h42.84c8.57,0,14.21,0.22,18.49,0.68c25.03,2.48,41.94,21.19,41.94,45.99
					c0,26.16-18.26,45.09-43.74,46l50.05,62.68l-14.2,10.59l-69.67-89.28h16.91c13.53,0,20.74-1.35,27.5-4.96
					c8.79-4.73,13.98-13.98,13.98-25.03c0-19.16-13.53-28.86-39.91-28.86h-24.8v144.75H501.07z"/>
				<path class="st0" d="M627.77,274.04V111.48h91.76v17.59h-72.15v53.66h71.47v17.81h-71.7V256h73.27v18.04H627.77z"/>
				<path class="st0" d="M726.97,274.04l80.27-170.68l80.04,170.68h-20.07l-29.31-62.23h-61.55l-29.31,62.23H726.97z M807.01,145.3
					l-22.78,49.37h45.09L807.01,145.3z"/>
				<path class="st0" d="M898.77,274.04V111.48h19.17v144.75h56.82v17.81H898.77z"/>
				<path class="st0" d="M953.55,129.52v-18.04h111.83v17.81h-46.45v144.75h-19.61V129.52H953.55z"/>
				<path class="st0" d="M1142.71,108.55c46.45,0,83.65,37.88,83.65,84.33c0,46.89-37.2,84.55-83.65,84.55s-83.88-37.65-83.88-84.32
					S1096.27,108.55,1142.71,108.55z M1076.42,193.1c0,36.98,28.86,66.06,66.29,66.06c37.2,0,66.28-29.08,66.28-66.06
					s-29.08-66.06-65.61-66.06C1105.28,127.04,1076.42,155.67,1076.42,193.1z"/>
				<path class="st0" d="M1249.12,274.04V111.48h42.84c8.56,0,14.2,0.22,18.49,0.68c25.03,2.48,41.94,21.19,41.94,45.99
					c0,26.16-18.26,45.09-43.74,46l50.05,62.68l-14.21,10.59l-69.67-89.28h16.91c13.53,0,20.74-1.35,27.51-4.96
					c8.79-4.73,13.98-13.98,13.98-25.03c0-19.16-13.53-28.86-39.91-28.86h-24.8v144.75H1249.12z"/>
				<path d="M1365.9,274.04l80.27-170.68l80.04,170.68h-20.07l-29.31-62.23h-61.55l-29.31,62.23H1365.9z M1445.95,145.3
					l-22.78,49.37h45.09L1445.95,145.3z"/>
				<path d="M1549.65,226.02c0.68,18.94,13.31,32.02,31.34,32.02c18.94,0,33.37-14.2,33.37-32.46c0-9.92-4.74-18.71-12.63-23.45
					c-4.06-2.48-7.66-3.38-22.55-6.31c-6.08-1.13-9.02-2.03-11.95-2.7c-20.07-5.41-31.56-18.71-31.56-36.75
					c0-27.06,20.52-47.8,47.35-47.8c26.83,0,44.64,16.01,48.47,43.52h-19.39c-2.03-15.56-13.53-25.7-28.86-25.7
					c-15.78,0-28.18,11.5-28.18,26.15c0,6.99,3.38,13.75,8.79,17.36c4.51,3.16,7.89,4.06,23.22,7.21
					c12.85,2.48,19.17,4.51,25.93,8.57c12.85,7.44,20.97,22.09,20.97,38.56c0,29.54-22.77,52.31-52.08,52.31
					c-29.54,0-50.73-20.74-51.64-50.51H1549.65z"/>
				<path d="M1670.27,226.02c0.68,18.94,13.31,32.02,31.34,32.02c18.94,0,33.37-14.2,33.37-32.46c0-9.92-4.74-18.71-12.63-23.45
					c-4.06-2.48-7.66-3.38-22.55-6.31c-6.08-1.13-9.02-2.03-11.95-2.7c-20.07-5.41-31.56-18.71-31.56-36.75
					c0-27.06,20.52-47.8,47.35-47.8c26.83,0,44.64,16.01,48.47,43.52h-19.39c-2.03-15.56-13.53-25.7-28.86-25.7
					c-15.78,0-28.18,11.5-28.18,26.15c0,6.99,3.38,13.75,8.79,17.36c4.51,3.16,7.89,4.06,23.22,7.21
					c12.85,2.48,19.17,4.51,25.93,8.57c12.85,7.44,20.97,22.09,20.97,38.56c0,29.54-22.77,52.31-52.08,52.31
					c-29.54,0-50.73-20.74-51.63-50.51H1670.27z"/>
				<path d="M1778.93,274.04V111.48h19.39v162.56H1778.93z"/>
				<path d="M1839.58,226.02c0.68,18.94,13.31,32.02,31.34,32.02c18.94,0,33.37-14.2,33.37-32.46c0-9.92-4.74-18.71-12.63-23.45
					c-4.06-2.48-7.66-3.38-22.55-6.31c-6.08-1.13-9.02-2.03-11.95-2.7c-20.07-5.41-31.56-18.71-31.56-36.75
					c0-27.06,20.52-47.8,47.35-47.8c26.83,0,44.64,16.01,48.47,43.52h-19.39c-2.03-15.56-13.53-25.7-28.86-25.7
					c-15.78,0-28.18,11.5-28.18,26.15c0,6.99,3.38,13.75,8.79,17.36c4.51,3.16,7.89,4.06,23.22,7.21
					c12.85,2.48,19.17,4.51,25.93,8.57c12.85,7.44,20.97,22.09,20.97,38.56c0,29.54-22.77,52.31-52.08,52.31
					c-29.54,0-50.73-20.74-51.63-50.51H1839.58z"/>
				<path d="M1922.32,129.52v-18.04h111.83v17.81h-46.45v144.75h-19.61V129.52H1922.32z"/>
				<path d="M2006.41,274.04l80.27-170.68l80.04,170.68h-20.06l-29.31-62.23h-61.55l-29.31,62.23H2006.41z M2086.46,145.3
					l-22.78,49.37h45.09L2086.46,145.3z"/>
				<path d="M2178.21,274.04V102.01l117.02,132.57c-2.03-5.18-2.48-8.12-2.48-14.21v-108.9h19.39v168.65L2194.9,146.65
					c2.03,4.96,2.48,8.79,2.48,13.53v113.86H2178.21z"/>
				<path d="M2323.63,129.52v-18.04h111.83v17.81h-46.45v144.75h-19.61V129.52H2323.63z"/>
				<path d="M2432.07,274.04v-24.58h18.71v24.58H2432.07z"/>
				<path d="M2564.19,183.85c-9.24-9.92-20.97-15.33-33.59-15.33c-24.58,0-44.19,20.07-44.19,45.09s19.17,44.87,43.97,44.87
					c12.85,0,23.22-4.73,32.69-14.65l13.3,12.85c-12.4,13.75-26.83,19.84-45.77,19.84c-36.3,0-63.36-26.6-63.36-62.46
					c0-35.17,28.18-63.36,63.36-63.36c19.16,0,33.14,6.09,48.02,21.42L2564.19,183.85z"/>
				<path d="M2699.69,169.88v-17.81h19.17v121.98h-19.17v-16.23c0-2.25,0.45-5.86,1.36-10.15c-1.8,4.96-3.16,6.99-5.19,9.69
					c-9.02,12.85-23.45,19.39-41.26,19.39c-35.17,0-63.13-27.51-63.13-62.68s28.41-63.13,64.03-63.13c22.09,0,38.1,9.69,45.77,28.63
					C2700.37,175.74,2699.69,172.36,2699.69,169.88z M2610.41,213.84c0,25.03,20.07,45.55,44.87,45.55
					c24.35,0,43.97-20.07,43.97-45.09c0-26.16-19.17-45.55-44.42-45.55C2629.8,168.75,2610.41,188.59,2610.41,213.84z"/>
			</g>
			<g>
				<path d="M2654.18,114.3h-5.11v13.74h-1.83V114.3h-5.1v-1.7h12.04V114.3z"/>
				<path d="M2656.34,112.6h2.73l5.24,12.11h0.04l5.28-12.11h2.66v15.45h-1.83v-12.96h-0.04l-5.54,12.96h-1.11l-5.54-12.96h-0.04
					v12.96h-1.83V112.6z"/>
				<path d="M2675.65,128.98l-1.37-0.55l6.56-16.76l1.37,0.52L2675.65,128.98z"/>
				<path d="M2684.2,112.6h2.73l5.24,12.11h0.04l5.28-12.11h2.66v15.45h-1.83v-12.96h-0.04l-5.54,12.96h-1.11l-5.54-12.96h-0.04
					v12.96h-1.83V112.6z"/>
				<path d="M2714.81,115.78c-0.47-0.62-1.04-1.09-1.72-1.41s-1.4-0.47-2.14-0.47c-0.85,0-1.65,0.17-2.36,0.52
					c-0.72,0.35-1.34,0.82-1.87,1.41c-0.52,0.59-0.93,1.28-1.22,2.06c-0.29,0.77-0.43,1.58-0.43,2.43c0,0.9,0.14,1.74,0.43,2.52
					c0.29,0.78,0.69,1.46,1.21,2.03c0.51,0.57,1.13,1.03,1.85,1.37c0.72,0.33,1.51,0.5,2.39,0.5c0.95,0,1.79-0.19,2.53-0.56
					c0.74-0.37,1.39-0.9,1.94-1.6l1.37,1.16c-0.7,0.93-1.54,1.62-2.52,2.06c-0.98,0.43-2.09,0.65-3.33,0.65
					c-1.11,0-2.14-0.21-3.1-0.61c-0.96-0.41-1.79-0.97-2.5-1.69c-0.7-0.72-1.26-1.58-1.66-2.57s-0.6-2.07-0.6-3.25
					c0-1.14,0.19-2.2,0.58-3.19c0.39-0.99,0.93-1.84,1.63-2.57c0.7-0.73,1.53-1.3,2.49-1.72c0.96-0.42,2.01-0.63,3.16-0.63
					c1.05,0,2.06,0.19,3.02,0.57c0.97,0.38,1.78,0.99,2.44,1.85L2714.81,115.78z"/>
			</g>
		</g>
		<g>
			<rect x="18.66" y="16.11" class="st0" width="371.35" height="371.35"/>
			<g id="good_R_18_">
				
					<image style="overflow:visible;" width="549" height="621" xlink:href="BCC4C5D0CF906423.png"  transform="matrix(0.48 0 0 0.48 72.7329 52.9796)">
				</image>
				<g>
					<g>
						<polygon class="st1" points="142.05,133.84 77.91,61.03 77.91,152.18 77.91,345.22 142.05,345.22 142.05,224.99 
							247.96,345.22 328.24,345.22 						"/>
						<path class="st1" d="M315.03,111.04c-17.41-30.38-50.37-48.21-94.48-51.96c-5.64-0.48-11.46-0.73-17.47-0.73h-97.64
							l40.06,45.48l16.43,18.66l0.03-0.02v0.02c0,0,59.23,0.03,61.76,0.03c22.9,0,41.46,18.56,41.46,41.46
							c0,32.9-26.97,45.11-26.97,45.11l42.48,48.22C280.69,257.31,364.73,197.75,315.03,111.04z"/>
					</g>
				</g>
			</g>
		</g>
	</g>
</g>
</svg>
